<mxfile host="Electron" agent="Mozilla/5.0 (Windows NT 10.0; Win64; x64) AppleWebKit/537.36 (KHTML, like Gecko) draw.io/26.0.9 Chrome/128.0.6613.186 Electron/32.2.5 Safari/537.36" version="26.0.9" pages="6">
  <diagram id="C5RBs43oDa-KdzZeNtuy" name="Setup Check Flow">
    <mxGraphModel dx="1691" dy="1677" grid="1" gridSize="10" guides="1" tooltips="1" connect="1" arrows="1" fold="1" page="1" pageScale="1" pageWidth="827" pageHeight="1169" math="0" shadow="0">
      <root>
        <mxCell id="WIyWlLk6GJQsqaUBKTNV-0" />
        <mxCell id="WIyWlLk6GJQsqaUBKTNV-1" parent="WIyWlLk6GJQsqaUBKTNV-0" />
        <mxCell id="G1iYNTqFY997dGFgQdrN-2" value="&lt;u&gt;Responsibilities of data.module.js&lt;/u&gt;&lt;div&gt;1. Different Functions to &lt;b&gt;fetch&lt;/b&gt; data from MongoDB&lt;/div&gt;&lt;div&gt;2. Different Functions to &lt;b&gt;Update&lt;/b&gt; data on MongoDB&lt;br&gt;&lt;div&gt;&lt;br&gt;&lt;/div&gt;&lt;/div&gt;" style="text;html=1;align=center;verticalAlign=middle;resizable=0;points=[];autosize=1;strokeColor=none;fillColor=none;" parent="WIyWlLk6GJQsqaUBKTNV-1" vertex="1">
          <mxGeometry x="-40" width="290" height="70" as="geometry" />
        </mxCell>
        <mxCell id="JuUSLkIApw0HSeUAdXVl-3" value="" style="edgeStyle=orthogonalEdgeStyle;rounded=0;orthogonalLoop=1;jettySize=auto;html=1;" parent="WIyWlLk6GJQsqaUBKTNV-1" source="G1iYNTqFY997dGFgQdrN-19" target="JuUSLkIApw0HSeUAdXVl-1" edge="1">
          <mxGeometry relative="1" as="geometry" />
        </mxCell>
        <mxCell id="G1iYNTqFY997dGFgQdrN-19" value="Profile Setup Check&lt;div&gt;&lt;u&gt;&lt;i&gt;&lt;b&gt;&lt;font style=&quot;color: rgb(5, 55, 255);&quot;&gt;Start&lt;/font&gt;&lt;/b&gt;&lt;/i&gt;&lt;/u&gt;&lt;/div&gt;" style="rounded=1;whiteSpace=wrap;html=1;" parent="WIyWlLk6GJQsqaUBKTNV-1" vertex="1">
          <mxGeometry x="320" y="-160" width="120" height="40" as="geometry" />
        </mxCell>
        <mxCell id="JuUSLkIApw0HSeUAdXVl-1" value="Ask for System Name" style="shape=parallelogram;perimeter=parallelogramPerimeter;whiteSpace=wrap;html=1;fixedSize=1;size=10;" parent="WIyWlLk6GJQsqaUBKTNV-1" vertex="1">
          <mxGeometry x="305" y="-90" width="150" height="40" as="geometry" />
        </mxCell>
        <mxCell id="JuUSLkIApw0HSeUAdXVl-5" value="There are 2 Starts&lt;div&gt;&lt;span style=&quot;background-color: transparent; color: light-dark(rgb(0, 0, 0), rgb(255, 255, 255));&quot;&gt;1. Automation Tasks&lt;/span&gt;&lt;div&gt;&lt;span style=&quot;background-color: transparent; color: light-dark(rgb(0, 0, 0), rgb(255, 255, 255));&quot;&gt;2. Profile Setup Check&lt;/span&gt;&lt;/div&gt;&lt;/div&gt;" style="text;html=1;align=center;verticalAlign=middle;resizable=0;points=[];autosize=1;strokeColor=none;fillColor=none;" parent="WIyWlLk6GJQsqaUBKTNV-1" vertex="1">
          <mxGeometry x="310" y="-220" width="140" height="60" as="geometry" />
        </mxCell>
        <mxCell id="JuUSLkIApw0HSeUAdXVl-16" style="edgeStyle=orthogonalEdgeStyle;rounded=0;orthogonalLoop=1;jettySize=auto;html=1;entryX=0.483;entryY=0.857;entryDx=0;entryDy=0;entryPerimeter=0;" parent="WIyWlLk6GJQsqaUBKTNV-1" source="G1iYNTqFY997dGFgQdrN-0" target="G1iYNTqFY997dGFgQdrN-2" edge="1">
          <mxGeometry relative="1" as="geometry" />
        </mxCell>
        <mxCell id="JuUSLkIApw0HSeUAdXVl-55" value="" style="group" parent="WIyWlLk6GJQsqaUBKTNV-1" vertex="1" connectable="0">
          <mxGeometry x="270" y="220" width="480" height="200" as="geometry" />
        </mxCell>
        <mxCell id="JuUSLkIApw0HSeUAdXVl-21" value="" style="whiteSpace=wrap;html=1;rounded=1;dashed=1;dashPattern=8 8;movable=1;resizable=1;rotatable=1;deletable=1;editable=1;locked=0;connectable=1;" parent="JuUSLkIApw0HSeUAdXVl-55" vertex="1">
          <mxGeometry y="20.961538461538453" width="479.99999999999994" height="179.03846153846155" as="geometry" />
        </mxCell>
        <mxCell id="JuUSLkIApw0HSeUAdXVl-22" style="edgeStyle=orthogonalEdgeStyle;rounded=0;orthogonalLoop=1;jettySize=auto;html=1;entryX=0;entryY=0.5;entryDx=0;entryDy=0;exitX=1;exitY=0.25;exitDx=0;exitDy=0;" parent="JuUSLkIApw0HSeUAdXVl-55" source="JuUSLkIApw0HSeUAdXVl-23" target="JuUSLkIApw0HSeUAdXVl-25" edge="1">
          <mxGeometry relative="1" as="geometry">
            <Array as="points">
              <mxPoint x="240" y="93" />
              <mxPoint x="240" y="75" />
            </Array>
          </mxGeometry>
        </mxCell>
        <mxCell id="JuUSLkIApw0HSeUAdXVl-23" value="Fetch Accounts without &lt;b&gt;&lt;u&gt;Facebook Profile&lt;/u&gt;&lt;/b&gt; on this System" style="whiteSpace=wrap;html=1;rounded=1;" parent="JuUSLkIApw0HSeUAdXVl-55" vertex="1">
          <mxGeometry x="30" y="80" width="160" height="50" as="geometry" />
        </mxCell>
        <mxCell id="JuUSLkIApw0HSeUAdXVl-24" style="edgeStyle=orthogonalEdgeStyle;rounded=0;orthogonalLoop=1;jettySize=auto;html=1;entryX=1;entryY=0.5;entryDx=0;entryDy=0;exitX=1;exitY=0.5;exitDx=0;exitDy=0;" parent="JuUSLkIApw0HSeUAdXVl-55" source="JuUSLkIApw0HSeUAdXVl-25" target="JuUSLkIApw0HSeUAdXVl-27" edge="1">
          <mxGeometry relative="1" as="geometry">
            <mxPoint x="470" y="140" as="targetPoint" />
          </mxGeometry>
        </mxCell>
        <mxCell id="JuUSLkIApw0HSeUAdXVl-25" value="Run newProfileSetup(acc)" style="rounded=1;whiteSpace=wrap;html=1;" parent="JuUSLkIApw0HSeUAdXVl-55" vertex="1">
          <mxGeometry x="270" y="60" width="170" height="30" as="geometry" />
        </mxCell>
        <mxCell id="JuUSLkIApw0HSeUAdXVl-26" style="edgeStyle=orthogonalEdgeStyle;rounded=0;orthogonalLoop=1;jettySize=auto;html=1;exitX=0;exitY=0.5;exitDx=0;exitDy=0;entryX=1;entryY=0.75;entryDx=0;entryDy=0;" parent="JuUSLkIApw0HSeUAdXVl-55" source="JuUSLkIApw0HSeUAdXVl-27" target="JuUSLkIApw0HSeUAdXVl-23" edge="1">
          <mxGeometry relative="1" as="geometry" />
        </mxCell>
        <mxCell id="JuUSLkIApw0HSeUAdXVl-27" value="db.updateAccount(acc)" style="rounded=1;whiteSpace=wrap;html=1;" parent="JuUSLkIApw0HSeUAdXVl-55" vertex="1">
          <mxGeometry x="288.5" y="120" width="133" height="30" as="geometry" />
        </mxCell>
        <mxCell id="JuUSLkIApw0HSeUAdXVl-28" value="Facebook Profile Setup Check or update" style="text;html=1;align=center;verticalAlign=middle;resizable=0;points=[];autosize=1;strokeColor=none;fillColor=none;fontStyle=3" parent="JuUSLkIApw0HSeUAdXVl-55" vertex="1">
          <mxGeometry x="225" width="240" height="30" as="geometry" />
        </mxCell>
        <mxCell id="JuUSLkIApw0HSeUAdXVl-56" value="" style="group" parent="WIyWlLk6GJQsqaUBKTNV-1" vertex="1" connectable="0">
          <mxGeometry x="260" y="440" width="480" height="200" as="geometry" />
        </mxCell>
        <mxCell id="JuUSLkIApw0HSeUAdXVl-57" value="" style="whiteSpace=wrap;html=1;rounded=1;dashed=1;dashPattern=8 8;movable=1;resizable=1;rotatable=1;deletable=1;editable=1;locked=0;connectable=1;" parent="JuUSLkIApw0HSeUAdXVl-56" vertex="1">
          <mxGeometry y="20.961538461538453" width="479.99999999999994" height="179.03846153846155" as="geometry" />
        </mxCell>
        <mxCell id="JuUSLkIApw0HSeUAdXVl-58" style="edgeStyle=orthogonalEdgeStyle;rounded=0;orthogonalLoop=1;jettySize=auto;html=1;entryX=0;entryY=0.5;entryDx=0;entryDy=0;exitX=1;exitY=0.25;exitDx=0;exitDy=0;" parent="JuUSLkIApw0HSeUAdXVl-56" source="JuUSLkIApw0HSeUAdXVl-59" target="JuUSLkIApw0HSeUAdXVl-61" edge="1">
          <mxGeometry relative="1" as="geometry">
            <Array as="points">
              <mxPoint x="240" y="93" />
              <mxPoint x="240" y="75" />
            </Array>
          </mxGeometry>
        </mxCell>
        <mxCell id="JuUSLkIApw0HSeUAdXVl-59" value="Fetch Accounts without &lt;b&gt;&lt;u&gt;InstaGram Profile&lt;/u&gt;&lt;/b&gt; on this System" style="whiteSpace=wrap;html=1;rounded=1;" parent="JuUSLkIApw0HSeUAdXVl-56" vertex="1">
          <mxGeometry x="30" y="80" width="160" height="50" as="geometry" />
        </mxCell>
        <mxCell id="JuUSLkIApw0HSeUAdXVl-60" style="edgeStyle=orthogonalEdgeStyle;rounded=0;orthogonalLoop=1;jettySize=auto;html=1;entryX=1;entryY=0.5;entryDx=0;entryDy=0;exitX=1;exitY=0.5;exitDx=0;exitDy=0;" parent="JuUSLkIApw0HSeUAdXVl-56" source="JuUSLkIApw0HSeUAdXVl-61" target="JuUSLkIApw0HSeUAdXVl-63" edge="1">
          <mxGeometry relative="1" as="geometry">
            <mxPoint x="470" y="140" as="targetPoint" />
          </mxGeometry>
        </mxCell>
        <mxCell id="JuUSLkIApw0HSeUAdXVl-61" value="Run newProfileSetup(acc)" style="rounded=1;whiteSpace=wrap;html=1;" parent="JuUSLkIApw0HSeUAdXVl-56" vertex="1">
          <mxGeometry x="270" y="60" width="170" height="30" as="geometry" />
        </mxCell>
        <mxCell id="JuUSLkIApw0HSeUAdXVl-62" style="edgeStyle=orthogonalEdgeStyle;rounded=0;orthogonalLoop=1;jettySize=auto;html=1;exitX=0;exitY=0.5;exitDx=0;exitDy=0;entryX=1;entryY=0.75;entryDx=0;entryDy=0;" parent="JuUSLkIApw0HSeUAdXVl-56" source="JuUSLkIApw0HSeUAdXVl-63" target="JuUSLkIApw0HSeUAdXVl-59" edge="1">
          <mxGeometry relative="1" as="geometry" />
        </mxCell>
        <mxCell id="JuUSLkIApw0HSeUAdXVl-63" value="db.updateAccount(acc)" style="rounded=1;whiteSpace=wrap;html=1;" parent="JuUSLkIApw0HSeUAdXVl-56" vertex="1">
          <mxGeometry x="288.5" y="120" width="133" height="30" as="geometry" />
        </mxCell>
        <mxCell id="JuUSLkIApw0HSeUAdXVl-64" value="InstaGram Profile Setup Check or update" style="text;html=1;align=center;verticalAlign=middle;resizable=0;points=[];autosize=1;strokeColor=none;fillColor=none;fontStyle=3" parent="JuUSLkIApw0HSeUAdXVl-56" vertex="1">
          <mxGeometry x="225" width="240" height="30" as="geometry" />
        </mxCell>
        <mxCell id="JuUSLkIApw0HSeUAdXVl-65" value="" style="group" parent="WIyWlLk6GJQsqaUBKTNV-1" vertex="1" connectable="0">
          <mxGeometry x="260" y="660" width="480" height="200" as="geometry" />
        </mxCell>
        <mxCell id="JuUSLkIApw0HSeUAdXVl-66" value="" style="whiteSpace=wrap;html=1;rounded=1;dashed=1;dashPattern=8 8;movable=1;resizable=1;rotatable=1;deletable=1;editable=1;locked=0;connectable=1;" parent="JuUSLkIApw0HSeUAdXVl-65" vertex="1">
          <mxGeometry y="20.961538461538453" width="479.99999999999994" height="179.03846153846155" as="geometry" />
        </mxCell>
        <mxCell id="JuUSLkIApw0HSeUAdXVl-67" style="edgeStyle=orthogonalEdgeStyle;rounded=0;orthogonalLoop=1;jettySize=auto;html=1;entryX=0;entryY=0.5;entryDx=0;entryDy=0;exitX=1;exitY=0.25;exitDx=0;exitDy=0;" parent="JuUSLkIApw0HSeUAdXVl-65" source="JuUSLkIApw0HSeUAdXVl-68" target="JuUSLkIApw0HSeUAdXVl-70" edge="1">
          <mxGeometry relative="1" as="geometry">
            <Array as="points">
              <mxPoint x="240" y="93" />
              <mxPoint x="240" y="75" />
            </Array>
          </mxGeometry>
        </mxCell>
        <mxCell id="JuUSLkIApw0HSeUAdXVl-68" value="Fetch Accounts without &lt;b&gt;&lt;u&gt;YouTube Profile&lt;/u&gt;&lt;/b&gt; on this System" style="whiteSpace=wrap;html=1;rounded=1;" parent="JuUSLkIApw0HSeUAdXVl-65" vertex="1">
          <mxGeometry x="30" y="80" width="160" height="50" as="geometry" />
        </mxCell>
        <mxCell id="JuUSLkIApw0HSeUAdXVl-69" style="edgeStyle=orthogonalEdgeStyle;rounded=0;orthogonalLoop=1;jettySize=auto;html=1;entryX=1;entryY=0.5;entryDx=0;entryDy=0;exitX=1;exitY=0.5;exitDx=0;exitDy=0;" parent="JuUSLkIApw0HSeUAdXVl-65" source="JuUSLkIApw0HSeUAdXVl-70" target="JuUSLkIApw0HSeUAdXVl-72" edge="1">
          <mxGeometry relative="1" as="geometry">
            <mxPoint x="470" y="140" as="targetPoint" />
          </mxGeometry>
        </mxCell>
        <mxCell id="JuUSLkIApw0HSeUAdXVl-70" value="Run newProfileSetup(acc)" style="rounded=1;whiteSpace=wrap;html=1;" parent="JuUSLkIApw0HSeUAdXVl-65" vertex="1">
          <mxGeometry x="270" y="60" width="170" height="30" as="geometry" />
        </mxCell>
        <mxCell id="JuUSLkIApw0HSeUAdXVl-71" style="edgeStyle=orthogonalEdgeStyle;rounded=0;orthogonalLoop=1;jettySize=auto;html=1;exitX=0;exitY=0.5;exitDx=0;exitDy=0;entryX=1;entryY=0.75;entryDx=0;entryDy=0;" parent="JuUSLkIApw0HSeUAdXVl-65" source="JuUSLkIApw0HSeUAdXVl-72" target="JuUSLkIApw0HSeUAdXVl-68" edge="1">
          <mxGeometry relative="1" as="geometry" />
        </mxCell>
        <mxCell id="JuUSLkIApw0HSeUAdXVl-72" value="db.updateAccount(acc)" style="rounded=1;whiteSpace=wrap;html=1;" parent="JuUSLkIApw0HSeUAdXVl-65" vertex="1">
          <mxGeometry x="288.5" y="120" width="133" height="30" as="geometry" />
        </mxCell>
        <mxCell id="JuUSLkIApw0HSeUAdXVl-73" value="YouTube Profile Setup Check or update" style="text;html=1;align=center;verticalAlign=middle;resizable=0;points=[];autosize=1;strokeColor=none;fillColor=none;fontStyle=3" parent="JuUSLkIApw0HSeUAdXVl-65" vertex="1">
          <mxGeometry x="230" width="230" height="30" as="geometry" />
        </mxCell>
        <mxCell id="JuUSLkIApw0HSeUAdXVl-74" value="" style="group" parent="WIyWlLk6GJQsqaUBKTNV-1" vertex="1" connectable="0">
          <mxGeometry x="260" y="880" width="480" height="200" as="geometry" />
        </mxCell>
        <mxCell id="JuUSLkIApw0HSeUAdXVl-75" value="" style="whiteSpace=wrap;html=1;rounded=1;dashed=1;dashPattern=8 8;movable=1;resizable=1;rotatable=1;deletable=1;editable=1;locked=0;connectable=1;" parent="JuUSLkIApw0HSeUAdXVl-74" vertex="1">
          <mxGeometry y="20.961538461538453" width="479.99999999999994" height="179.03846153846155" as="geometry" />
        </mxCell>
        <mxCell id="JuUSLkIApw0HSeUAdXVl-76" style="edgeStyle=orthogonalEdgeStyle;rounded=0;orthogonalLoop=1;jettySize=auto;html=1;entryX=0;entryY=0.5;entryDx=0;entryDy=0;exitX=1;exitY=0.25;exitDx=0;exitDy=0;" parent="JuUSLkIApw0HSeUAdXVl-74" source="JuUSLkIApw0HSeUAdXVl-77" target="JuUSLkIApw0HSeUAdXVl-79" edge="1">
          <mxGeometry relative="1" as="geometry">
            <Array as="points">
              <mxPoint x="240" y="93" />
              <mxPoint x="240" y="75" />
            </Array>
          </mxGeometry>
        </mxCell>
        <mxCell id="JuUSLkIApw0HSeUAdXVl-77" value="Fetch Accounts without &lt;b&gt;&lt;u&gt;Pinterest Profile&lt;/u&gt;&lt;/b&gt; on this System" style="whiteSpace=wrap;html=1;rounded=1;" parent="JuUSLkIApw0HSeUAdXVl-74" vertex="1">
          <mxGeometry x="30" y="80" width="160" height="50" as="geometry" />
        </mxCell>
        <mxCell id="JuUSLkIApw0HSeUAdXVl-78" style="edgeStyle=orthogonalEdgeStyle;rounded=0;orthogonalLoop=1;jettySize=auto;html=1;entryX=1;entryY=0.5;entryDx=0;entryDy=0;exitX=1;exitY=0.5;exitDx=0;exitDy=0;" parent="JuUSLkIApw0HSeUAdXVl-74" source="JuUSLkIApw0HSeUAdXVl-79" target="JuUSLkIApw0HSeUAdXVl-81" edge="1">
          <mxGeometry relative="1" as="geometry">
            <mxPoint x="470" y="140" as="targetPoint" />
          </mxGeometry>
        </mxCell>
        <mxCell id="JuUSLkIApw0HSeUAdXVl-79" value="Run newProfileSetup(acc)" style="rounded=1;whiteSpace=wrap;html=1;" parent="JuUSLkIApw0HSeUAdXVl-74" vertex="1">
          <mxGeometry x="270" y="60" width="170" height="30" as="geometry" />
        </mxCell>
        <mxCell id="JuUSLkIApw0HSeUAdXVl-80" style="edgeStyle=orthogonalEdgeStyle;rounded=0;orthogonalLoop=1;jettySize=auto;html=1;exitX=0;exitY=0.5;exitDx=0;exitDy=0;entryX=1;entryY=0.75;entryDx=0;entryDy=0;" parent="JuUSLkIApw0HSeUAdXVl-74" source="JuUSLkIApw0HSeUAdXVl-81" target="JuUSLkIApw0HSeUAdXVl-77" edge="1">
          <mxGeometry relative="1" as="geometry" />
        </mxCell>
        <mxCell id="JuUSLkIApw0HSeUAdXVl-81" value="db.updateAccount(acc)" style="rounded=1;whiteSpace=wrap;html=1;" parent="JuUSLkIApw0HSeUAdXVl-74" vertex="1">
          <mxGeometry x="288.5" y="120" width="133" height="30" as="geometry" />
        </mxCell>
        <mxCell id="JuUSLkIApw0HSeUAdXVl-82" value="Pinterest Profile Setup Check or update" style="text;html=1;align=center;verticalAlign=middle;resizable=0;points=[];autosize=1;strokeColor=none;fillColor=none;fontStyle=3" parent="JuUSLkIApw0HSeUAdXVl-74" vertex="1">
          <mxGeometry x="230" width="230" height="30" as="geometry" />
        </mxCell>
        <mxCell id="JuUSLkIApw0HSeUAdXVl-83" style="edgeStyle=orthogonalEdgeStyle;rounded=0;orthogonalLoop=1;jettySize=auto;html=1;exitX=1;exitY=0.5;exitDx=0;exitDy=0;entryX=0;entryY=0.5;entryDx=0;entryDy=0;" parent="WIyWlLk6GJQsqaUBKTNV-1" source="G1iYNTqFY997dGFgQdrN-0" target="JuUSLkIApw0HSeUAdXVl-23" edge="1">
          <mxGeometry relative="1" as="geometry">
            <Array as="points">
              <mxPoint x="230" y="115" />
              <mxPoint x="230" y="325" />
            </Array>
          </mxGeometry>
        </mxCell>
        <mxCell id="JuUSLkIApw0HSeUAdXVl-84" style="edgeStyle=orthogonalEdgeStyle;rounded=0;orthogonalLoop=1;jettySize=auto;html=1;entryX=0;entryY=0.5;entryDx=0;entryDy=0;" parent="WIyWlLk6GJQsqaUBKTNV-1" source="G1iYNTqFY997dGFgQdrN-0" target="JuUSLkIApw0HSeUAdXVl-59" edge="1">
          <mxGeometry relative="1" as="geometry" />
        </mxCell>
        <mxCell id="JuUSLkIApw0HSeUAdXVl-85" style="edgeStyle=orthogonalEdgeStyle;rounded=0;orthogonalLoop=1;jettySize=auto;html=1;entryX=0;entryY=0.5;entryDx=0;entryDy=0;" parent="WIyWlLk6GJQsqaUBKTNV-1" edge="1">
          <mxGeometry relative="1" as="geometry">
            <mxPoint x="158" y="115" as="sourcePoint" />
            <mxPoint x="288" y="765" as="targetPoint" />
            <Array as="points">
              <mxPoint x="218" y="115" />
              <mxPoint x="218" y="765" />
            </Array>
          </mxGeometry>
        </mxCell>
        <mxCell id="JuUSLkIApw0HSeUAdXVl-86" style="edgeStyle=orthogonalEdgeStyle;rounded=0;orthogonalLoop=1;jettySize=auto;html=1;entryX=0;entryY=0.5;entryDx=0;entryDy=0;" parent="WIyWlLk6GJQsqaUBKTNV-1" source="G1iYNTqFY997dGFgQdrN-0" target="JuUSLkIApw0HSeUAdXVl-77" edge="1">
          <mxGeometry relative="1" as="geometry">
            <Array as="points">
              <mxPoint x="210" y="115" />
              <mxPoint x="210" y="985" />
            </Array>
          </mxGeometry>
        </mxCell>
        <mxCell id="G1iYNTqFY997dGFgQdrN-0" value="data.module.js" style="shape=process;whiteSpace=wrap;html=1;backgroundOutline=1;" parent="WIyWlLk6GJQsqaUBKTNV-1" vertex="1">
          <mxGeometry x="40" y="95" width="120" height="40" as="geometry" />
        </mxCell>
        <mxCell id="JuUSLkIApw0HSeUAdXVl-14" value="" style="whiteSpace=wrap;html=1;rounded=1;dashed=1;dashPattern=8 8;movable=1;resizable=1;rotatable=1;deletable=1;editable=1;locked=0;connectable=1;" parent="WIyWlLk6GJQsqaUBKTNV-1" vertex="1">
          <mxGeometry x="270" y="30.96" width="570" height="179.04" as="geometry" />
        </mxCell>
        <mxCell id="pF8UExuNeTjNuxV1eLf8-6" style="edgeStyle=orthogonalEdgeStyle;rounded=0;orthogonalLoop=1;jettySize=auto;html=1;exitX=1;exitY=0.25;exitDx=0;exitDy=0;entryX=0;entryY=0.5;entryDx=0;entryDy=0;" parent="WIyWlLk6GJQsqaUBKTNV-1" source="G1iYNTqFY997dGFgQdrN-20" target="pF8UExuNeTjNuxV1eLf8-2" edge="1">
          <mxGeometry relative="1" as="geometry" />
        </mxCell>
        <mxCell id="G1iYNTqFY997dGFgQdrN-20" value="Fetch Accounts without &lt;b&gt;&lt;u&gt;Chrome Profile &lt;/u&gt;&lt;/b&gt;on this System" style="whiteSpace=wrap;html=1;rounded=1;" parent="WIyWlLk6GJQsqaUBKTNV-1" vertex="1">
          <mxGeometry x="300" y="90" width="160" height="50" as="geometry" />
        </mxCell>
        <mxCell id="pF8UExuNeTjNuxV1eLf8-8" style="edgeStyle=orthogonalEdgeStyle;rounded=0;orthogonalLoop=1;jettySize=auto;html=1;entryX=1;entryY=0.5;entryDx=0;entryDy=0;exitX=1;exitY=0.5;exitDx=0;exitDy=0;" parent="WIyWlLk6GJQsqaUBKTNV-1" source="JuUSLkIApw0HSeUAdXVl-6" target="JuUSLkIApw0HSeUAdXVl-8" edge="1">
          <mxGeometry relative="1" as="geometry" />
        </mxCell>
        <mxCell id="JuUSLkIApw0HSeUAdXVl-6" value="Run newProfileSetup(acc)" style="rounded=1;whiteSpace=wrap;html=1;" parent="WIyWlLk6GJQsqaUBKTNV-1" vertex="1">
          <mxGeometry x="640" y="43.75" width="170" height="30" as="geometry" />
        </mxCell>
        <mxCell id="JuUSLkIApw0HSeUAdXVl-13" style="edgeStyle=orthogonalEdgeStyle;rounded=0;orthogonalLoop=1;jettySize=auto;html=1;exitX=0;exitY=0.5;exitDx=0;exitDy=0;entryX=1;entryY=0.75;entryDx=0;entryDy=0;" parent="WIyWlLk6GJQsqaUBKTNV-1" source="JuUSLkIApw0HSeUAdXVl-8" target="G1iYNTqFY997dGFgQdrN-20" edge="1">
          <mxGeometry relative="1" as="geometry" />
        </mxCell>
        <mxCell id="JuUSLkIApw0HSeUAdXVl-8" value="db.updateAccount(acc)" style="rounded=1;whiteSpace=wrap;html=1;" parent="WIyWlLk6GJQsqaUBKTNV-1" vertex="1">
          <mxGeometry x="558.5" y="130" width="133" height="30" as="geometry" />
        </mxCell>
        <mxCell id="JuUSLkIApw0HSeUAdXVl-20" value="Chrome Profile Setup Check or update" style="text;html=1;align=center;verticalAlign=middle;resizable=0;points=[];autosize=1;strokeColor=none;fillColor=none;fontStyle=3" parent="WIyWlLk6GJQsqaUBKTNV-1" vertex="1">
          <mxGeometry x="500" y="10" width="230" height="30" as="geometry" />
        </mxCell>
        <mxCell id="pF8UExuNeTjNuxV1eLf8-4" value="" style="edgeStyle=orthogonalEdgeStyle;rounded=0;orthogonalLoop=1;jettySize=auto;html=1;" parent="WIyWlLk6GJQsqaUBKTNV-1" source="pF8UExuNeTjNuxV1eLf8-2" target="JuUSLkIApw0HSeUAdXVl-6" edge="1">
          <mxGeometry relative="1" as="geometry" />
        </mxCell>
        <mxCell id="pF8UExuNeTjNuxV1eLf8-9" style="edgeStyle=orthogonalEdgeStyle;rounded=0;orthogonalLoop=1;jettySize=auto;html=1;exitX=0.5;exitY=1;exitDx=0;exitDy=0;entryX=1;entryY=0.5;entryDx=0;entryDy=0;" parent="WIyWlLk6GJQsqaUBKTNV-1" source="pF8UExuNeTjNuxV1eLf8-2" target="G1iYNTqFY997dGFgQdrN-20" edge="1">
          <mxGeometry relative="1" as="geometry" />
        </mxCell>
        <mxCell id="pF8UExuNeTjNuxV1eLf8-10" value="&lt;font style=&quot;font-size: 8px;&quot;&gt;No&lt;/font&gt;" style="edgeLabel;html=1;align=center;verticalAlign=middle;resizable=0;points=[];" parent="pF8UExuNeTjNuxV1eLf8-9" vertex="1" connectable="0">
          <mxGeometry x="-0.7002" relative="1" as="geometry">
            <mxPoint as="offset" />
          </mxGeometry>
        </mxCell>
        <mxCell id="pF8UExuNeTjNuxV1eLf8-2" value="&lt;font style=&quot;font-size: 8px;&quot;&gt;Yes / No&lt;/font&gt;" style="rhombus;whiteSpace=wrap;html=1;" parent="WIyWlLk6GJQsqaUBKTNV-1" vertex="1">
          <mxGeometry x="500" y="40" width="50" height="37.5" as="geometry" />
        </mxCell>
        <mxCell id="JuUSLkIApw0HSeUAdXVl-4" value="" style="edgeStyle=orthogonalEdgeStyle;rounded=0;orthogonalLoop=1;jettySize=auto;html=1;" parent="WIyWlLk6GJQsqaUBKTNV-1" source="JuUSLkIApw0HSeUAdXVl-1" target="G1iYNTqFY997dGFgQdrN-20" edge="1">
          <mxGeometry relative="1" as="geometry" />
        </mxCell>
        <mxCell id="G1iYNTqFY997dGFgQdrN-22" style="edgeStyle=orthogonalEdgeStyle;rounded=0;orthogonalLoop=1;jettySize=auto;html=1;entryX=0;entryY=0.5;entryDx=0;entryDy=0;" parent="WIyWlLk6GJQsqaUBKTNV-1" source="G1iYNTqFY997dGFgQdrN-0" target="G1iYNTqFY997dGFgQdrN-20" edge="1">
          <mxGeometry relative="1" as="geometry" />
        </mxCell>
      </root>
    </mxGraphModel>
  </diagram>
  <diagram id="0vILi9GIpXNt7RF87Oxv" name="Data">
    <mxGraphModel dx="880" dy="426" grid="1" gridSize="10" guides="1" tooltips="1" connect="1" arrows="1" fold="1" page="1" pageScale="1" pageWidth="850" pageHeight="1100" math="0" shadow="0">
      <root>
        <mxCell id="0" />
        <mxCell id="1" parent="0" />
        <mxCell id="ppfSv4TqEF6iTH8VW4YC-1" value="&lt;font style=&quot;font-size: 18px;&quot;&gt;&lt;b&gt;&lt;u&gt;Data&lt;/u&gt;&lt;/b&gt;&lt;/font&gt;" style="text;html=1;align=center;verticalAlign=middle;resizable=0;points=[];autosize=1;strokeColor=none;fillColor=none;" vertex="1" parent="1">
          <mxGeometry x="230" y="293" width="60" height="40" as="geometry" />
        </mxCell>
        <mxCell id="ppfSv4TqEF6iTH8VW4YC-2" value="1. Account={&lt;div&gt;gmail}&lt;/div&gt;" style="text;html=1;align=center;verticalAlign=middle;resizable=0;points=[];autosize=1;strokeColor=none;fillColor=none;" vertex="1" parent="1">
          <mxGeometry x="215" y="315" width="90" height="40" as="geometry" />
        </mxCell>
      </root>
    </mxGraphModel>
  </diagram>
  <diagram id="Nv9RCjIO2oAjBxa0k_82" name="Class Profile">
    <mxGraphModel dx="1691" dy="508" grid="1" gridSize="10" guides="1" tooltips="1" connect="1" arrows="1" fold="1" page="1" pageScale="1" pageWidth="827" pageHeight="1169" math="0" shadow="0">
      <root>
        <mxCell id="0" />
        <mxCell id="1" parent="0" />
        <mxCell id="tGxUBICM2nKA1S7CJpvc-28" style="edgeStyle=orthogonalEdgeStyle;rounded=0;orthogonalLoop=1;jettySize=auto;html=1;exitX=0.5;exitY=0.967;exitDx=0;exitDy=0;exitPerimeter=0;" parent="1" source="tGxUBICM2nKA1S7CJpvc-1" target="tGxUBICM2nKA1S7CJpvc-23" edge="1">
          <mxGeometry relative="1" as="geometry" />
        </mxCell>
        <mxCell id="tGxUBICM2nKA1S7CJpvc-31" style="edgeStyle=orthogonalEdgeStyle;rounded=0;orthogonalLoop=1;jettySize=auto;html=1;exitX=0.5;exitY=1.033;exitDx=0;exitDy=0;exitPerimeter=0;" parent="1" source="tGxUBICM2nKA1S7CJpvc-1" target="tGxUBICM2nKA1S7CJpvc-18" edge="1">
          <mxGeometry relative="1" as="geometry" />
        </mxCell>
        <mxCell id="tGxUBICM2nKA1S7CJpvc-32" value="" style="edgeStyle=orthogonalEdgeStyle;rounded=0;orthogonalLoop=1;jettySize=auto;html=1;entryX=0.5;entryY=0;entryDx=0;entryDy=0;" parent="1" source="XHHG88zvpyxviRTdXvDx-2" target="tGxUBICM2nKA1S7CJpvc-13" edge="1">
          <mxGeometry relative="1" as="geometry" />
        </mxCell>
        <mxCell id="tGxUBICM2nKA1S7CJpvc-33" style="edgeStyle=orthogonalEdgeStyle;rounded=0;orthogonalLoop=1;jettySize=auto;html=1;entryX=0.5;entryY=0;entryDx=0;entryDy=0;exitX=0.495;exitY=1.033;exitDx=0;exitDy=0;exitPerimeter=0;" parent="1" source="tGxUBICM2nKA1S7CJpvc-1" target="tGxUBICM2nKA1S7CJpvc-2" edge="1">
          <mxGeometry relative="1" as="geometry" />
        </mxCell>
        <mxCell id="XHHG88zvpyxviRTdXvDx-2" value="&lt;b&gt;Class Chrome Profile&lt;/b&gt;" style="swimlane;fontStyle=0;childLayout=stackLayout;horizontal=1;startSize=30;horizontalStack=0;resizeParent=1;resizeParentMax=0;resizeLast=0;collapsible=1;marginBottom=0;whiteSpace=wrap;html=1;" parent="1" vertex="1">
          <mxGeometry x="200" y="40" width="200" height="150" as="geometry" />
        </mxCell>
        <mxCell id="XHHG88zvpyxviRTdXvDx-3" value="&lt;i&gt;&lt;font style=&quot;color: rgb(102, 102, 255);&quot;&gt;&lt;b&gt;fetchWithout()&lt;/b&gt;&lt;/font&gt;&lt;/i&gt;" style="text;strokeColor=none;fillColor=none;align=left;verticalAlign=middle;spacingLeft=4;spacingRight=4;overflow=hidden;points=[[0,0.5],[1,0.5]];portConstraint=eastwest;rotatable=0;whiteSpace=wrap;html=1;" parent="XHHG88zvpyxviRTdXvDx-2" vertex="1">
          <mxGeometry y="30" width="200" height="30" as="geometry" />
        </mxCell>
        <mxCell id="3WErAX2d_V6YN8_b4h0Q-1" value="&lt;i&gt;&lt;font style=&quot;color: rgb(102, 102, 255);&quot;&gt;&lt;b&gt;checkAvailableIdentity()&lt;/b&gt;&lt;/font&gt;&lt;/i&gt;" style="text;strokeColor=none;fillColor=none;align=left;verticalAlign=middle;spacingLeft=4;spacingRight=4;overflow=hidden;points=[[0,0.5],[1,0.5]];portConstraint=eastwest;rotatable=0;whiteSpace=wrap;html=1;" parent="XHHG88zvpyxviRTdXvDx-2" vertex="1">
          <mxGeometry y="60" width="200" height="30" as="geometry" />
        </mxCell>
        <mxCell id="3WErAX2d_V6YN8_b4h0Q-2" value="&lt;i&gt;&lt;font style=&quot;color: rgb(102, 102, 255);&quot;&gt;&lt;b&gt;newProfileSetup()&lt;/b&gt;&lt;/font&gt;&lt;/i&gt;" style="text;strokeColor=none;fillColor=none;align=left;verticalAlign=middle;spacingLeft=4;spacingRight=4;overflow=hidden;points=[[0,0.5],[1,0.5]];portConstraint=eastwest;rotatable=0;whiteSpace=wrap;html=1;" parent="XHHG88zvpyxviRTdXvDx-2" vertex="1">
          <mxGeometry y="90" width="200" height="30" as="geometry" />
        </mxCell>
        <mxCell id="tGxUBICM2nKA1S7CJpvc-1" value="&lt;i&gt;&lt;font style=&quot;color: rgb(102, 102, 255);&quot;&gt;&lt;b&gt;updateAccount()&lt;/b&gt;&lt;/font&gt;&lt;/i&gt;" style="text;strokeColor=none;fillColor=none;align=left;verticalAlign=middle;spacingLeft=4;spacingRight=4;overflow=hidden;points=[[0,0.5],[1,0.5]];portConstraint=eastwest;rotatable=0;whiteSpace=wrap;html=1;" parent="XHHG88zvpyxviRTdXvDx-2" vertex="1">
          <mxGeometry y="120" width="200" height="30" as="geometry" />
        </mxCell>
        <mxCell id="tGxUBICM2nKA1S7CJpvc-2" value="&lt;b&gt;Class Facebook Profile&lt;/b&gt;" style="swimlane;fontStyle=0;childLayout=stackLayout;horizontal=1;startSize=30;horizontalStack=0;resizeParent=1;resizeParentMax=0;resizeLast=0;collapsible=1;marginBottom=0;whiteSpace=wrap;html=1;" parent="1" vertex="1">
          <mxGeometry x="440" y="240" width="200" height="150" as="geometry" />
        </mxCell>
        <mxCell id="tGxUBICM2nKA1S7CJpvc-3" value="&lt;i&gt;&lt;font style=&quot;color: rgb(102, 102, 255);&quot;&gt;&lt;b&gt;fetchWithout()&lt;/b&gt;&lt;/font&gt;&lt;/i&gt;" style="text;strokeColor=none;fillColor=none;align=left;verticalAlign=middle;spacingLeft=4;spacingRight=4;overflow=hidden;points=[[0,0.5],[1,0.5]];portConstraint=eastwest;rotatable=0;whiteSpace=wrap;html=1;" parent="tGxUBICM2nKA1S7CJpvc-2" vertex="1">
          <mxGeometry y="30" width="200" height="30" as="geometry" />
        </mxCell>
        <mxCell id="tGxUBICM2nKA1S7CJpvc-4" value="&lt;i&gt;&lt;font style=&quot;color: rgb(102, 102, 255);&quot;&gt;&lt;b&gt;checkAvailableIdentity()&lt;/b&gt;&lt;/font&gt;&lt;/i&gt;" style="text;strokeColor=none;fillColor=none;align=left;verticalAlign=middle;spacingLeft=4;spacingRight=4;overflow=hidden;points=[[0,0.5],[1,0.5]];portConstraint=eastwest;rotatable=0;whiteSpace=wrap;html=1;" parent="tGxUBICM2nKA1S7CJpvc-2" vertex="1">
          <mxGeometry y="60" width="200" height="30" as="geometry" />
        </mxCell>
        <mxCell id="tGxUBICM2nKA1S7CJpvc-5" value="&lt;i&gt;&lt;font style=&quot;color: rgb(102, 102, 255);&quot;&gt;&lt;b&gt;newProfileSetup()&lt;/b&gt;&lt;/font&gt;&lt;/i&gt;" style="text;strokeColor=none;fillColor=none;align=left;verticalAlign=middle;spacingLeft=4;spacingRight=4;overflow=hidden;points=[[0,0.5],[1,0.5]];portConstraint=eastwest;rotatable=0;whiteSpace=wrap;html=1;" parent="tGxUBICM2nKA1S7CJpvc-2" vertex="1">
          <mxGeometry y="90" width="200" height="30" as="geometry" />
        </mxCell>
        <mxCell id="tGxUBICM2nKA1S7CJpvc-6" value="&lt;i&gt;&lt;font style=&quot;color: rgb(102, 102, 255);&quot;&gt;&lt;b&gt;updateAccount()&lt;/b&gt;&lt;/font&gt;&lt;/i&gt;" style="text;strokeColor=none;fillColor=none;align=left;verticalAlign=middle;spacingLeft=4;spacingRight=4;overflow=hidden;points=[[0,0.5],[1,0.5]];portConstraint=eastwest;rotatable=0;whiteSpace=wrap;html=1;" parent="tGxUBICM2nKA1S7CJpvc-2" vertex="1">
          <mxGeometry y="120" width="200" height="30" as="geometry" />
        </mxCell>
        <mxCell id="tGxUBICM2nKA1S7CJpvc-13" value="&lt;b&gt;Class Instagram Profile&lt;/b&gt;" style="swimlane;fontStyle=0;childLayout=stackLayout;horizontal=1;startSize=30;horizontalStack=0;resizeParent=1;resizeParentMax=0;resizeLast=0;collapsible=1;marginBottom=0;whiteSpace=wrap;html=1;" parent="1" vertex="1">
          <mxGeometry x="200" y="240" width="200" height="150" as="geometry" />
        </mxCell>
        <mxCell id="tGxUBICM2nKA1S7CJpvc-14" value="&lt;i&gt;&lt;font style=&quot;color: rgb(102, 102, 255);&quot;&gt;&lt;b&gt;fetchWithout()&lt;/b&gt;&lt;/font&gt;&lt;/i&gt;" style="text;strokeColor=none;fillColor=none;align=left;verticalAlign=middle;spacingLeft=4;spacingRight=4;overflow=hidden;points=[[0,0.5],[1,0.5]];portConstraint=eastwest;rotatable=0;whiteSpace=wrap;html=1;" parent="tGxUBICM2nKA1S7CJpvc-13" vertex="1">
          <mxGeometry y="30" width="200" height="30" as="geometry" />
        </mxCell>
        <mxCell id="tGxUBICM2nKA1S7CJpvc-15" value="&lt;i&gt;&lt;font style=&quot;color: rgb(102, 102, 255);&quot;&gt;&lt;b&gt;checkAvailableIdentity()&lt;/b&gt;&lt;/font&gt;&lt;/i&gt;" style="text;strokeColor=none;fillColor=none;align=left;verticalAlign=middle;spacingLeft=4;spacingRight=4;overflow=hidden;points=[[0,0.5],[1,0.5]];portConstraint=eastwest;rotatable=0;whiteSpace=wrap;html=1;" parent="tGxUBICM2nKA1S7CJpvc-13" vertex="1">
          <mxGeometry y="60" width="200" height="30" as="geometry" />
        </mxCell>
        <mxCell id="tGxUBICM2nKA1S7CJpvc-16" value="&lt;i&gt;&lt;font style=&quot;color: rgb(102, 102, 255);&quot;&gt;&lt;b&gt;newProfileSetup()&lt;/b&gt;&lt;/font&gt;&lt;/i&gt;" style="text;strokeColor=none;fillColor=none;align=left;verticalAlign=middle;spacingLeft=4;spacingRight=4;overflow=hidden;points=[[0,0.5],[1,0.5]];portConstraint=eastwest;rotatable=0;whiteSpace=wrap;html=1;" parent="tGxUBICM2nKA1S7CJpvc-13" vertex="1">
          <mxGeometry y="90" width="200" height="30" as="geometry" />
        </mxCell>
        <mxCell id="tGxUBICM2nKA1S7CJpvc-17" value="&lt;i&gt;&lt;font style=&quot;color: rgb(102, 102, 255);&quot;&gt;&lt;b&gt;updateAccount()&lt;/b&gt;&lt;/font&gt;&lt;/i&gt;" style="text;strokeColor=none;fillColor=none;align=left;verticalAlign=middle;spacingLeft=4;spacingRight=4;overflow=hidden;points=[[0,0.5],[1,0.5]];portConstraint=eastwest;rotatable=0;whiteSpace=wrap;html=1;" parent="tGxUBICM2nKA1S7CJpvc-13" vertex="1">
          <mxGeometry y="120" width="200" height="30" as="geometry" />
        </mxCell>
        <mxCell id="tGxUBICM2nKA1S7CJpvc-18" value="&lt;b&gt;Class Pinterest Profile&lt;/b&gt;" style="swimlane;fontStyle=0;childLayout=stackLayout;horizontal=1;startSize=30;horizontalStack=0;resizeParent=1;resizeParentMax=0;resizeLast=0;collapsible=1;marginBottom=0;whiteSpace=wrap;html=1;" parent="1" vertex="1">
          <mxGeometry x="-40" y="240" width="200" height="150" as="geometry" />
        </mxCell>
        <mxCell id="tGxUBICM2nKA1S7CJpvc-19" value="&lt;i&gt;&lt;font style=&quot;color: rgb(102, 102, 255);&quot;&gt;&lt;b&gt;fetchWithout()&lt;/b&gt;&lt;/font&gt;&lt;/i&gt;" style="text;strokeColor=none;fillColor=none;align=left;verticalAlign=middle;spacingLeft=4;spacingRight=4;overflow=hidden;points=[[0,0.5],[1,0.5]];portConstraint=eastwest;rotatable=0;whiteSpace=wrap;html=1;" parent="tGxUBICM2nKA1S7CJpvc-18" vertex="1">
          <mxGeometry y="30" width="200" height="30" as="geometry" />
        </mxCell>
        <mxCell id="tGxUBICM2nKA1S7CJpvc-20" value="&lt;i&gt;&lt;font style=&quot;color: rgb(102, 102, 255);&quot;&gt;&lt;b&gt;checkAvailableIdentity()&lt;/b&gt;&lt;/font&gt;&lt;/i&gt;" style="text;strokeColor=none;fillColor=none;align=left;verticalAlign=middle;spacingLeft=4;spacingRight=4;overflow=hidden;points=[[0,0.5],[1,0.5]];portConstraint=eastwest;rotatable=0;whiteSpace=wrap;html=1;" parent="tGxUBICM2nKA1S7CJpvc-18" vertex="1">
          <mxGeometry y="60" width="200" height="30" as="geometry" />
        </mxCell>
        <mxCell id="tGxUBICM2nKA1S7CJpvc-21" value="&lt;i&gt;&lt;font style=&quot;color: rgb(102, 102, 255);&quot;&gt;&lt;b&gt;newProfileSetup()&lt;/b&gt;&lt;/font&gt;&lt;/i&gt;" style="text;strokeColor=none;fillColor=none;align=left;verticalAlign=middle;spacingLeft=4;spacingRight=4;overflow=hidden;points=[[0,0.5],[1,0.5]];portConstraint=eastwest;rotatable=0;whiteSpace=wrap;html=1;" parent="tGxUBICM2nKA1S7CJpvc-18" vertex="1">
          <mxGeometry y="90" width="200" height="30" as="geometry" />
        </mxCell>
        <mxCell id="tGxUBICM2nKA1S7CJpvc-22" value="&lt;i&gt;&lt;font style=&quot;color: rgb(102, 102, 255);&quot;&gt;&lt;b&gt;updateAccount()&lt;/b&gt;&lt;/font&gt;&lt;/i&gt;" style="text;strokeColor=none;fillColor=none;align=left;verticalAlign=middle;spacingLeft=4;spacingRight=4;overflow=hidden;points=[[0,0.5],[1,0.5]];portConstraint=eastwest;rotatable=0;whiteSpace=wrap;html=1;" parent="tGxUBICM2nKA1S7CJpvc-18" vertex="1">
          <mxGeometry y="120" width="200" height="30" as="geometry" />
        </mxCell>
        <mxCell id="tGxUBICM2nKA1S7CJpvc-23" value="&lt;b&gt;Class YouTube Profile&lt;/b&gt;" style="swimlane;fontStyle=0;childLayout=stackLayout;horizontal=1;startSize=30;horizontalStack=0;resizeParent=1;resizeParentMax=0;resizeLast=0;collapsible=1;marginBottom=0;whiteSpace=wrap;html=1;" parent="1" vertex="1">
          <mxGeometry x="-280" y="240" width="200" height="150" as="geometry" />
        </mxCell>
        <mxCell id="tGxUBICM2nKA1S7CJpvc-24" value="&lt;i&gt;&lt;font style=&quot;color: rgb(102, 102, 255);&quot;&gt;&lt;b&gt;fetchWithout()&lt;/b&gt;&lt;/font&gt;&lt;/i&gt;" style="text;strokeColor=none;fillColor=none;align=left;verticalAlign=middle;spacingLeft=4;spacingRight=4;overflow=hidden;points=[[0,0.5],[1,0.5]];portConstraint=eastwest;rotatable=0;whiteSpace=wrap;html=1;" parent="tGxUBICM2nKA1S7CJpvc-23" vertex="1">
          <mxGeometry y="30" width="200" height="30" as="geometry" />
        </mxCell>
        <mxCell id="tGxUBICM2nKA1S7CJpvc-25" value="&lt;i&gt;&lt;font style=&quot;color: rgb(102, 102, 255);&quot;&gt;&lt;b&gt;checkAvailableIdentity()&lt;/b&gt;&lt;/font&gt;&lt;/i&gt;" style="text;strokeColor=none;fillColor=none;align=left;verticalAlign=middle;spacingLeft=4;spacingRight=4;overflow=hidden;points=[[0,0.5],[1,0.5]];portConstraint=eastwest;rotatable=0;whiteSpace=wrap;html=1;" parent="tGxUBICM2nKA1S7CJpvc-23" vertex="1">
          <mxGeometry y="60" width="200" height="30" as="geometry" />
        </mxCell>
        <mxCell id="tGxUBICM2nKA1S7CJpvc-26" value="&lt;i&gt;&lt;font style=&quot;color: rgb(102, 102, 255);&quot;&gt;&lt;b&gt;newProfileSetup()&lt;/b&gt;&lt;/font&gt;&lt;/i&gt;" style="text;strokeColor=none;fillColor=none;align=left;verticalAlign=middle;spacingLeft=4;spacingRight=4;overflow=hidden;points=[[0,0.5],[1,0.5]];portConstraint=eastwest;rotatable=0;whiteSpace=wrap;html=1;" parent="tGxUBICM2nKA1S7CJpvc-23" vertex="1">
          <mxGeometry y="90" width="200" height="30" as="geometry" />
        </mxCell>
        <mxCell id="tGxUBICM2nKA1S7CJpvc-27" value="&lt;i&gt;&lt;font style=&quot;color: rgb(102, 102, 255);&quot;&gt;&lt;b&gt;updateAccount()&lt;/b&gt;&lt;/font&gt;&lt;/i&gt;" style="text;strokeColor=none;fillColor=none;align=left;verticalAlign=middle;spacingLeft=4;spacingRight=4;overflow=hidden;points=[[0,0.5],[1,0.5]];portConstraint=eastwest;rotatable=0;whiteSpace=wrap;html=1;" parent="tGxUBICM2nKA1S7CJpvc-23" vertex="1">
          <mxGeometry y="120" width="200" height="30" as="geometry" />
        </mxCell>
        <mxCell id="tGxUBICM2nKA1S7CJpvc-35" value="data.module.js" style="shape=process;whiteSpace=wrap;html=1;backgroundOutline=1;" parent="1" vertex="1">
          <mxGeometry x="570" y="102.5" width="120" height="25" as="geometry" />
        </mxCell>
        <mxCell id="tGxUBICM2nKA1S7CJpvc-36" style="edgeStyle=orthogonalEdgeStyle;rounded=0;orthogonalLoop=1;jettySize=auto;html=1;entryX=0;entryY=0.5;entryDx=0;entryDy=0;" parent="1" source="XHHG88zvpyxviRTdXvDx-3" target="tGxUBICM2nKA1S7CJpvc-35" edge="1">
          <mxGeometry relative="1" as="geometry" />
        </mxCell>
        <mxCell id="tGxUBICM2nKA1S7CJpvc-45" value="get()" style="edgeLabel;html=1;align=center;verticalAlign=middle;resizable=0;points=[];" parent="tGxUBICM2nKA1S7CJpvc-36" vertex="1" connectable="0">
          <mxGeometry x="-0.5833" y="1" relative="1" as="geometry">
            <mxPoint as="offset" />
          </mxGeometry>
        </mxCell>
        <mxCell id="tGxUBICM2nKA1S7CJpvc-41" style="edgeStyle=orthogonalEdgeStyle;rounded=0;orthogonalLoop=1;jettySize=auto;html=1;entryX=0;entryY=0.5;entryDx=0;entryDy=0;" parent="1" source="3WErAX2d_V6YN8_b4h0Q-1" target="tGxUBICM2nKA1S7CJpvc-35" edge="1">
          <mxGeometry relative="1" as="geometry" />
        </mxCell>
        <mxCell id="tGxUBICM2nKA1S7CJpvc-42" value="get()" style="edgeLabel;html=1;align=center;verticalAlign=middle;resizable=0;points=[];" parent="tGxUBICM2nKA1S7CJpvc-41" vertex="1" connectable="0">
          <mxGeometry x="-0.5" relative="1" as="geometry">
            <mxPoint as="offset" />
          </mxGeometry>
        </mxCell>
        <mxCell id="tGxUBICM2nKA1S7CJpvc-43" style="edgeStyle=orthogonalEdgeStyle;rounded=0;orthogonalLoop=1;jettySize=auto;html=1;entryX=0;entryY=0.5;entryDx=0;entryDy=0;" parent="1" source="tGxUBICM2nKA1S7CJpvc-1" target="tGxUBICM2nKA1S7CJpvc-35" edge="1">
          <mxGeometry relative="1" as="geometry" />
        </mxCell>
        <mxCell id="tGxUBICM2nKA1S7CJpvc-44" value="post()" style="edgeLabel;html=1;align=center;verticalAlign=middle;resizable=0;points=[];" parent="tGxUBICM2nKA1S7CJpvc-43" vertex="1" connectable="0">
          <mxGeometry x="-0.6232" y="-2" relative="1" as="geometry">
            <mxPoint as="offset" />
          </mxGeometry>
        </mxCell>
        <mxCell id="tGxUBICM2nKA1S7CJpvc-47" value="browser.module.js" style="rounded=1;whiteSpace=wrap;html=1;" parent="1" vertex="1">
          <mxGeometry x="-50" y="131.25" width="120" height="27.5" as="geometry" />
        </mxCell>
        <mxCell id="tGxUBICM2nKA1S7CJpvc-50" value="" style="endArrow=classic;startArrow=classic;html=1;rounded=0;exitX=1;exitY=0.5;exitDx=0;exitDy=0;entryX=0;entryY=0.5;entryDx=0;entryDy=0;" parent="1" source="tGxUBICM2nKA1S7CJpvc-47" target="3WErAX2d_V6YN8_b4h0Q-2" edge="1">
          <mxGeometry width="50" height="50" relative="1" as="geometry">
            <mxPoint x="80" y="127.5" as="sourcePoint" />
            <mxPoint x="140" y="90" as="targetPoint" />
          </mxGeometry>
        </mxCell>
      </root>
    </mxGraphModel>
  </diagram>
  <diagram id="vydftofrHM6CRl0cbdg_" name="Steps Of Development">
    <mxGraphModel dx="864" dy="508" grid="1" gridSize="10" guides="1" tooltips="1" connect="1" arrows="1" fold="1" page="1" pageScale="1" pageWidth="827" pageHeight="1169" math="0" shadow="0">
      <root>
        <mxCell id="0" />
        <mxCell id="1" parent="0" />
        <mxCell id="0DKDQaHCh6WY0q9146wV-1" value="&lt;u&gt;Steps of Development&lt;/u&gt;" style="text;strokeColor=none;fillColor=none;html=1;fontSize=15;fontStyle=1;verticalAlign=middle;align=center;" parent="1" vertex="1">
          <mxGeometry x="300" y="50" width="100" height="40" as="geometry" />
        </mxCell>
        <mxCell id="0DKDQaHCh6WY0q9146wV-2" value="&lt;b&gt;&lt;font style=&quot;color: rgb(255, 115, 22);&quot;&gt;&lt;u style=&quot;&quot;&gt;WEB AUTOMATION&lt;/u&gt;&lt;/font&gt;&lt;/b&gt;" style="text;html=1;align=center;verticalAlign=middle;resizable=0;points=[];autosize=1;strokeColor=none;fillColor=none;fontSize=28;" parent="1" vertex="1">
          <mxGeometry x="210" width="280" height="50" as="geometry" />
        </mxCell>
        <mxCell id="SDCObGm6zKXkaVOfEHv0-1" value="&lt;b&gt;Functionalities Required on every platform are as:&lt;/b&gt;&lt;div&gt;&lt;b&gt;&lt;br&gt;&lt;/b&gt;&lt;/div&gt;&lt;div&gt;&lt;b&gt;&lt;font style=&quot;font-size: 14px;&quot;&gt;Actions on Profile&lt;/font&gt;&lt;br&gt;&lt;/b&gt;&lt;div&gt;&lt;div style=&quot;text-align: left;&quot;&gt;&lt;b&gt;1. &lt;u&gt;Post&lt;/u&gt;&lt;/b&gt;&lt;/div&gt;&lt;/div&gt;&lt;/div&gt;&lt;div style=&quot;text-align: left;&quot;&gt;&lt;b&gt;&lt;span style=&quot;white-space: pre;&quot;&gt;&#x9;&lt;span style=&quot;white-space: pre;&quot;&gt;&#x9;&lt;/span&gt;&lt;/span&gt;i. &lt;span style=&quot;white-space: pre;&quot;&gt;&#x9;&lt;/span&gt;Photo&lt;br&gt;&lt;/b&gt;&lt;/div&gt;&lt;div style=&quot;text-align: left;&quot;&gt;&lt;b&gt;&lt;span style=&quot;white-space: pre;&quot;&gt;&#x9;&lt;/span&gt;&lt;span style=&quot;white-space: pre;&quot;&gt;&#x9;&lt;/span&gt;ii.&lt;span style=&quot;white-space: pre;&quot;&gt;&#x9;&lt;/span&gt;Short Video&lt;br&gt;&lt;/b&gt;&lt;/div&gt;&lt;div style=&quot;text-align: left;&quot;&gt;&lt;b&gt;&lt;span style=&quot;white-space: pre;&quot;&gt;&#x9;&lt;/span&gt;&lt;span style=&quot;white-space: pre;&quot;&gt;&#x9;&lt;/span&gt;iii.&lt;span style=&quot;white-space: pre;&quot;&gt;&#x9;&lt;/span&gt;Video&lt;br&gt;&lt;/b&gt;&lt;/div&gt;&lt;div style=&quot;text-align: left;&quot;&gt;&lt;b&gt;&lt;span style=&quot;white-space: pre;&quot;&gt;&#x9;&lt;/span&gt;&lt;span style=&quot;white-space: pre;&quot;&gt;&#x9;&lt;/span&gt;iv.&lt;span style=&quot;white-space: pre;&quot;&gt;&#x9;&lt;/span&gt;Text / Article&lt;br&gt;&lt;/b&gt;&lt;/div&gt;&lt;div style=&quot;text-align: left;&quot;&gt;&lt;b&gt;2. &lt;u&gt;Like&lt;/u&gt;&lt;/b&gt;&lt;/div&gt;&lt;div style=&quot;text-align: left;&quot;&gt;&lt;b&gt;3. &lt;u&gt;Share&lt;/u&gt;&lt;/b&gt;&lt;/div&gt;&lt;div style=&quot;text-align: left;&quot;&gt;&lt;b&gt;4. &lt;u&gt;Views&lt;/u&gt;&lt;/b&gt;&lt;/div&gt;&lt;div style=&quot;text-align: left;&quot;&gt;&lt;b&gt;5. &lt;u&gt;Comment&lt;/u&gt;&lt;/b&gt;&lt;/div&gt;&lt;div style=&quot;text-align: left;&quot;&gt;&lt;b&gt;&lt;br&gt;&lt;/b&gt;&lt;/div&gt;&lt;div style=&quot;&quot;&gt;&lt;b&gt;&lt;br&gt;&lt;/b&gt;&lt;/div&gt;&lt;div style=&quot;&quot;&gt;&lt;b&gt;Backend &lt;i&gt;(Behind the Scences)&lt;/i&gt;&lt;/b&gt;&lt;/div&gt;&lt;div style=&quot;&quot;&gt;&lt;b&gt;&lt;i&gt;&lt;br&gt;&lt;/i&gt;&lt;/b&gt;&lt;/div&gt;&lt;div style=&quot;&quot;&gt;&lt;b&gt;&lt;font style=&quot;font-size: 14px;&quot;&gt;Actions For Profile&lt;/font&gt;&lt;/b&gt;&lt;/div&gt;&lt;div style=&quot;&quot;&gt;&lt;b&gt;&lt;font style=&quot;font-size: 14px;&quot;&gt;&lt;br&gt;&lt;/font&gt;&lt;/b&gt;&lt;/div&gt;" style="text;html=1;align=center;verticalAlign=middle;resizable=0;points=[];autosize=1;strokeColor=none;fillColor=none;fontSize=12;" vertex="1" parent="1">
          <mxGeometry x="195" y="100" width="310" height="280" as="geometry" />
        </mxCell>
      </root>
    </mxGraphModel>
  </diagram>
  <diagram id="oP6zFmriVTFhqf8Rv2Kz" name="Main Execution Flow">
    <mxGraphModel dx="864" dy="508" grid="1" gridSize="10" guides="1" tooltips="1" connect="1" arrows="1" fold="1" page="1" pageScale="1" pageWidth="827" pageHeight="1169" math="0" shadow="0">
      <root>
        <mxCell id="0" />
        <mxCell id="1" parent="0" />
        <mxCell id="DtVduZuaeLoVyIOAvJZR-3" value="" style="edgeStyle=orthogonalEdgeStyle;rounded=1;orthogonalLoop=1;jettySize=auto;html=1;" edge="1" parent="1" source="DtVduZuaeLoVyIOAvJZR-1" target="DtVduZuaeLoVyIOAvJZR-2">
          <mxGeometry relative="1" as="geometry" />
        </mxCell>
        <mxCell id="DtVduZuaeLoVyIOAvJZR-1" value="index.js" style="rounded=1;whiteSpace=wrap;html=1;" vertex="1" parent="1">
          <mxGeometry x="360" y="90" width="80" height="30" as="geometry" />
        </mxCell>
        <mxCell id="DtVduZuaeLoVyIOAvJZR-12" value="" style="edgeStyle=orthogonalEdgeStyle;rounded=1;orthogonalLoop=1;jettySize=auto;html=1;" edge="1" parent="1" source="DtVduZuaeLoVyIOAvJZR-2" target="DtVduZuaeLoVyIOAvJZR-11">
          <mxGeometry relative="1" as="geometry" />
        </mxCell>
        <mxCell id="DtVduZuaeLoVyIOAvJZR-2" value="Open &amp;amp; Connect Chrome Instance" style="whiteSpace=wrap;html=1;rounded=1;" vertex="1" parent="1">
          <mxGeometry x="300" y="160" width="200" height="45" as="geometry" />
        </mxCell>
        <mxCell id="DtVduZuaeLoVyIOAvJZR-5" style="edgeStyle=orthogonalEdgeStyle;rounded=1;orthogonalLoop=1;jettySize=auto;html=1;entryX=0;entryY=0.25;entryDx=0;entryDy=0;dashed=1;" edge="1" parent="1" source="DtVduZuaeLoVyIOAvJZR-4" target="DtVduZuaeLoVyIOAvJZR-1">
          <mxGeometry relative="1" as="geometry" />
        </mxCell>
        <mxCell id="DtVduZuaeLoVyIOAvJZR-4" value="data.module.js" style="shape=process;whiteSpace=wrap;html=1;backgroundOutline=1;dashed=1;rounded=1;" vertex="1" parent="1">
          <mxGeometry x="30" y="50" width="120" height="30" as="geometry" />
        </mxCell>
        <mxCell id="DtVduZuaeLoVyIOAvJZR-7" style="edgeStyle=orthogonalEdgeStyle;rounded=1;orthogonalLoop=1;jettySize=auto;html=1;entryX=0;entryY=0.5;entryDx=0;entryDy=0;dashed=1;" edge="1" parent="1" source="DtVduZuaeLoVyIOAvJZR-6" target="DtVduZuaeLoVyIOAvJZR-1">
          <mxGeometry relative="1" as="geometry">
            <mxPoint x="260" y="105" as="targetPoint" />
          </mxGeometry>
        </mxCell>
        <mxCell id="DtVduZuaeLoVyIOAvJZR-6" value="browser.module.js" style="rounded=1;whiteSpace=wrap;html=1;dashed=1;" vertex="1" parent="1">
          <mxGeometry x="30" y="90" width="120" height="30" as="geometry" />
        </mxCell>
        <mxCell id="DtVduZuaeLoVyIOAvJZR-9" style="edgeStyle=orthogonalEdgeStyle;rounded=1;orthogonalLoop=1;jettySize=auto;html=1;entryX=0;entryY=0.75;entryDx=0;entryDy=0;dashed=1;" edge="1" parent="1" source="DtVduZuaeLoVyIOAvJZR-8" target="DtVduZuaeLoVyIOAvJZR-1">
          <mxGeometry relative="1" as="geometry" />
        </mxCell>
        <mxCell id="DtVduZuaeLoVyIOAvJZR-8" value="PageClass.js" style="rounded=1;whiteSpace=wrap;html=1;dashed=1;" vertex="1" parent="1">
          <mxGeometry x="30" y="133" width="120" height="30" as="geometry" />
        </mxCell>
        <mxCell id="DtVduZuaeLoVyIOAvJZR-11" value="wrap PageClass on page object" style="whiteSpace=wrap;html=1;rounded=1;" vertex="1" parent="1">
          <mxGeometry x="300" y="230" width="200" height="40" as="geometry" />
        </mxCell>
      </root>
    </mxGraphModel>
  </diagram>
  <diagram id="hCJ4J76gkmSDXkVUPUkS" name="gmailSignInModule Flow">
    <mxGraphModel dx="1036" dy="614" grid="1" gridSize="10" guides="1" tooltips="1" connect="1" arrows="1" fold="1" page="1" pageScale="1" pageWidth="850" pageHeight="1100" math="0" shadow="0">
      <root>
        <mxCell id="0" />
        <mxCell id="1" parent="0" />
      </root>
    </mxGraphModel>
  </diagram>
</mxfile>
